<svg viewBox="0 0 24 24" id="v2_color_pd_ic_train" xmlns="http://www.w3.org/2000/svg"><path fill="#333" d="M22.07 10.81l-4.69-5.05-.22-.23a8.53 8.53 0 00-6.08-2.59H1.5a.62.62 0 00-.56.66v12.9a.58.58 0 00.55.56h18.36a3.55 3.55 0 003.21-3.65 3.79 3.79 0 00-.99-2.6zM6.29 9.33a2.11 2.11 0 00-2-2.17H2.06v-3h9.31a7.46 7.46 0 015.2 2.45l.49.53h-5.94a2.11 2.11 0 00-1.87 2.19 2.1 2.1 0 002 2.17h9.82l.16.18.12.14a2.54 2.54 0 01.54 1.58 2.35 2.35 0 01-2.25 2.43H2.06V11.5h2.36a2.12 2.12 0 001.87-2.17zm5 .94h-.1a.92.92 0 01-.77-.94.91.91 0 01.87-.94h6.91l1.8 1.88zm-9.21 0V8.39h2.29a.92.92 0 01.77.93.91.91 0 01-.87.94z"></path><rect fill="#26bec9" x=".94" y="20.43" width="22.12" height="1.6" rx=".8"></rect></svg>