<svg viewBox="0 0 24 24" id="v2_color_pd_ic_outdoor" xmlns="http://www.w3.org/2000/svg"><path fill="#26bec9" d="M6.5 1.56h6.33a1 1 0 011 1v3a1 1 0 01-1 1H6.5z"></path><path fill="#333" d="M23.09 18.83L18 7.66a.53.53 0 00-.59-.25 22.53 22.53 0 01-5.41.71 22.62 22.62 0 01-5-.61V1.33a.52.52 0 00-1 0v6.45l-5.07 11a.52.52 0 000 .5.53.53 0 00.45.25h21.25a.53.53 0 00.45-.25.52.52 0 00.01-.45zM8.2 18.56H7v-2.18zM6 16.38v2.18H4.8zm4.81 2.18H9.38L7 14.09a.35.35 0 00-.12-.09l-.06-.06H6.19l-.07.06a.86.86 0 00-.07.1l-2.43 4.46H2.21L6.5 9zm11 0H12L7.47 8.67a23.78 23.78 0 004.53.48 23.61 23.61 0 005.23-.64zM10.78 20.74h-.49a.57.57 0 100 1.12h.49a.57.57 0 100-1.12zM6.38 22.44h-.49a.57.57 0 100 1.12h.49a.57.57 0 100-1.12zM14.44 22.44H14a.57.57 0 100 1.12h.48a.57.57 0 100-1.12zM2.71 20.74h-.49a.57.57 0 100 1.12h.49a.57.57 0 100-1.12zM18.11 20.74h-.49a.57.57 0 100 1.12h.49a.57.57 0 100-1.12zM21.78 22.44h-.49a.57.57 0 100 1.12h.49a.57.57 0 100-1.12z"></path></svg>