<svg viewBox="0 0 24 24" id="v2_color_pd_ic_tour" xmlns="http://www.w3.org/2000/svg"><path fill="#333" d="M22.93 15.42a.35.35 0 000-.14 5.08 5.08 0 00-.3-.8l-2.47-7.69A3.29 3.29 0 0019 5.12l-.08-.6v-.1a2.42 2.42 0 00-2.3-1.67 2.47 2.47 0 00-2.52 2.42v1a3.11 3.11 0 00-.41 1.21H10.3a3.19 3.19 0 00-.42-1.2v-.94a2.47 2.47 0 00-2.41-2.47 2.42 2.42 0 00-2.3 1.68.29.29 0 000 .09l-.09.58a3.33 3.33 0 00-1.24 1.67l-2.43 7.65a5.6 5.6 0 00-.3.81v.14a4.78 4.78 0 003.49 5.74 4.88 4.88 0 001.07.12 4.66 4.66 0 002.47-.71 4.72 4.72 0 002.11-3 4.81 4.81 0 00.12-1.07V14.7h3.28v1.79a4.71 4.71 0 109.42 0 4.81 4.81 0 00-.14-1.07zm-3.69 4.64a3.89 3.89 0 01-.9.11 3.61 3.61 0 01-2.58-1.07 3.7 3.7 0 012.58-6.3 3.65 3.65 0 013.27 2.07l.26.7a3.7 3.7 0 01-2.63 4.49zM15.18 5a1.39 1.39 0 011.35-1.21 1.36 1.36 0 011.21.75 3.29 3.29 0 00-2.56.46zm1.82.56a2.14 2.14 0 011.13.31h.08a2.31 2.31 0 01.93 1.22l1.56 5.25a4.66 4.66 0 00-6 1.08V7.78A2.26 2.26 0 0117 5.56zM13.65 13v.63h-3.29V13zm0-4.56v3.49h-3.3V8.44zM4.49 13a3.7 3.7 0 011.18-.2 3.65 3.65 0 011.6.38 3.72 3.72 0 011.67 4.93 3.68 3.68 0 01-3.27 2.06 3.6 3.6 0 01-2.58-1.08A3.65 3.65 0 012 16.49a3.44 3.44 0 01.11-.91l.26-.71A3.65 3.65 0 014.49 13zm3.22-7.33a2.3 2.3 0 011.18.9 2.32 2.32 0 01.34 1.2v5.64a4.66 4.66 0 00-6-1.08l1.62-5.18A2.28 2.28 0 016 5.8a2.24 2.24 0 011.71-.13zM7 4.48a3.18 3.18 0 00-.74.09 1.37 1.37 0 011.2-.72A1.38 1.38 0 018.82 5 3.3 3.3 0 007 4.48z"></path><path fill="#26bec9" d="M19.31 14a.57.57 0 00-.42-.14A3.16 3.16 0 0015.84 17 .58.58 0 0017 17a2 2 0 012-2 .54.54 0 00.4-.19.57.57 0 00.14-.42.58.58 0 00-.23-.39zM6.68 14a.58.58 0 00-.42-.14 3.16 3.16 0 00-3 3.09.58.58 0 00.58.58.57.57 0 00.52-.53 2 2 0 012-1.94.51.51 0 00.4-.19.53.53 0 00.15-.42.63.63 0 00-.23-.45z"></path></svg>