<svg viewBox="0 0 24 24" id="v2_color_pd_ic_experience" xmlns="http://www.w3.org/2000/svg"><path fill="#333" d="M23 10.58a2.25 2.25 0 00-1.5-1.8 2.57 2.57 0 00-.92-1.32A2.41 2.41 0 0018.84 7 6.69 6.69 0 0012 1a7.3 7.3 0 00-2.12.31A6.7 6.7 0 006 4.41a2.57 2.57 0 00-.86-.17A2.41 2.41 0 002.72 6a2.25 2.25 0 00.47 4.44h2.53a13 13 0 002.49 4.54l1 3.3 1-.4-.69-2.39a10.13 10.13 0 002.56.32 10.22 10.22 0 002.37-.4l-.82 2.47 1 .4 1.16-3.32a11.3 11.3 0 001.25-1.78h4.05a2.26 2.26 0 001.91-2.6zm-1.08.16a1.14 1.14 0 01-.86 1.26h-3.39a13.78 13.78 0 00.76-2q.14-.51.24-1c.06-.3.1-.6.13-.89a1.42 1.42 0 011.07.27 1.5 1.5 0 01.57 1l.06.42h.41a1.12 1.12 0 01.99.94zm-7.17-8a5.24 5.24 0 013.05 4.6v.28a9.06 9.06 0 01-.12 1v.08a.64.64 0 000 .07 10.17 10.17 0 01-.27 1.09v.16c-.11.35-.24.69-.37 1l-.06.15c-.18.42-.36.79-.55 1.14l-.15.26a10.46 10.46 0 01-1 1.47l-.46.12a12.47 12.47 0 00-.09-11.41zm-6.64 7.67a12.11 12.11 0 001.33 3.87L9 14.17a11.75 11.75 0 01-2.13-3.75zM3.72 7v-.52a1.3 1.3 0 011.39-1.13 1.53 1.53 0 01.81.23 1.12 1.12 0 01.54.71l.14.62.58-.21a.93.93 0 011 .24.69.69 0 01.18.42v.57l.42.11a.61.61 0 01.47.61.62.62 0 01-.61.63H3.19a1.14 1.14 0 010-2.28zm4.62-1.3a2.11 2.11 0 00-.82-.17h-.17A2.27 2.27 0 006.91 5a5.52 5.52 0 012.45-2.27A14.51 14.51 0 008.34 5.7zm2.05 3a1.73 1.73 0 00-.9-1.54 1.75 1.75 0 00-.22-.58 12.64 12.64 0 011.6-4.31A6.23 6.23 0 0112 2.11a6.73 6.73 0 011.18.11 11.68 11.68 0 011.63 4 10.85 10.85 0 01-1.6 8.35 6.55 6.55 0 01-1.12.14 8.29 8.29 0 01-1.21-.08 11.36 11.36 0 01-1.68-4.27 1.74 1.74 0 001.19-1.7z"></path><path fill="#26bec9" d="M15.2 17.65H8.8a.61.61 0 00-.67.53v3.65c0 .67.77 1.17 1.66 1.17h4.42c.89 0 1.66-.5 1.66-1.17v-3.65a.61.61 0 00-.67-.53z"></path></svg>