<svg viewBox="0 0 24 24" id="v2_color_pd_ic_food" xmlns="http://www.w3.org/2000/svg"><path fill="#333" d="M9.22 14.07h1.52a1 1 0 00-.54.95v.1a1.5 1.5 0 001.08 1.33 2.51 2.51 0 001.67 0l.2-.06.43-.14a2.08 2.08 0 00.86-.63l.37-.45 1-1.1h.65l-1.19 2.24-.33.66-.11.22-.06.09-.23.36a.57.57 0 01-.14.13l-.15.08-.3.15-.27.13a2.32 2.32 0 01-.52.17H10.36l-1 .87-2.55-1.98.78-1.26a5.81 5.81 0 011.58-1.83zM13 13H8.89l-.13.08a7 7 0 00-2.5 2.89.78.78 0 00.17 1l.13.1.08.07 2.85 2.42.15.13a.75.75 0 00.86.06h.29l.53-.05h1.84a5.58 5.58 0 001.46-.57c.14-.07.24-.14.34-.2a1.64 1.64 0 00.4-.39l.11-.15.15-.23.13-.23a.75.75 0 00.07-.12l.15-.28.29-.6 1.4-2.62a1 1 0 00-.1-1l-.09-.31h-2.22l-1.42 1.6-.19.23a1.28 1.28 0 01-.46.42l-.39.13-.17.05a1.4 1.4 0 01-.9 0h-.08a.65.65 0 01-.24-.17v-.05h.07l1-.13c.7-.09.86-.57.86-1.27a1 1 0 00-.13-.51z"></path><path fill="#26bec9" d="M8.85 21.06a.49.49 0 10.49.49.49.49 0 00-.49-.49zm-4.7-4.92a1.33 1.33 0 011.76-.06l4.93 4.21a1.33 1.33 0 01.16 1.88l-1.19 1.29a1.32 1.32 0 01-1.76.05l-4.94-4.2A1.33 1.33 0 013 17.43z"></path><path fill="#333" d="M13.41 4.5a.6.6 0 01.74-.42 6.94 6.94 0 014.32 3.7.59.59 0 01-.3.79.59.59 0 01-.79-.29 5.7 5.7 0 00-3.55-3 .6.6 0 01-.42-.78z"></path><path fill="#333" d="M22 12.33a1.51 1.51 0 00-.67-1.09A9.77 9.77 0 0013.41 2a1.5 1.5 0 00-2.86 0 9.75 9.75 0 00-7.9 9.21A1.5 1.5 0 002 12.47v.15A1.47 1.47 0 003.47 14h17.06A1.48 1.48 0 0022 12.48zM12 2.89a8.62 8.62 0 018.31 8H3.67a8.62 8.62 0 018.33-8zM20.53 13H3.47a.47.47 0 01-.46-.4v-.1a.49.49 0 01.47-.5h17.05a.47.47 0 01.46.41v.09a.48.48 0 01-.46.5z"></path></svg>