<svg viewBox="0 0 24 24" id="v2_color_pd_ic_hotel" xmlns="http://www.w3.org/2000/svg"><path fill="#26bec9" d="M10 16.63h4a1 1 0 011 1v4H9v-4a1 1 0 011-1z"></path><path fill="#333" d="M22.62 12.48V4.75a.56.56 0 00-.56-.55h-4.5V2.46A.56.56 0 0017 1.9H7a.56.56 0 00-.56.56V4.2H2a.56.56 0 00-.56.55v7.73a3.56 3.56 0 00-.92 2.38 3.52 3.52 0 00.92 2.37v4.31a.56.56 0 00.56.56h20.06a.56.56 0 00.56-.56v-4.31a3.52 3.52 0 00.92-2.37 3.56 3.56 0 00-.92-2.38zm-1.12 5.58V21h-.95v-2.64a3.19 3.19 0 00.95-.3zm-2.07.3V21h-1.87v-3.56a3.6 3.6 0 001.87.92zM7.59 21V3h8.85v3.17a.55.55 0 00.56.55.54.54 0 00.55-.55v-.85h3.95v6.33a3.58 3.58 0 00-1.5-.34 3.54 3.54 0 00-2.5 1 .58.58 0 00-.49-.28.56.56 0 00-.56.56V21M20 12.43a2.43 2.43 0 11-2.43 2.43A2.43 2.43 0 0120 12.43zM3.48 18.36V21h-1v-2.94a3.19 3.19 0 001 .3zm3-.92V21H4.6v-2.64a3.6 3.6 0 001.87-.92zm0-2.58A2.43 2.43 0 114 12.43a2.43 2.43 0 012.47 2.43zm-3.95-3.21V5.32h3.94v7a3.54 3.54 0 00-2.43-1 3.58 3.58 0 00-1.51.33z"></path><rect fill="#333" x="9.01" y="7.32" width="6" height="1" rx=".5"></rect><rect fill="#333" x="9.01" y="10.1" width="6" height="1" rx=".5"></rect></svg>