<svg viewBox="0 0 24 24" id="v2_color_pd_ic_pass" xmlns="http://www.w3.org/2000/svg"><path fill="#333" d="M21.47 5.32H2.53a.34.34 0 00-.32.35v9.43h19.58V5.67a.36.36 0 00-.26-.35zM2.21 16.11v2.22a.36.36 0 00.26.35h19a.34.34 0 00.32-.35v-2.22zM21.47 4A1.61 1.61 0 0123 5.67v12.66A1.61 1.61 0 0121.47 20H2.53A1.61 1.61 0 011 18.33V5.67A1.61 1.61 0 012.53 4z"></path><path fill="#26bec9" d="M12.82 8.11a.41.41 0 01.62-.35l2.44 1.52a.41.41 0 010 .69l-2.44 1.52a.41.41 0 01-.62-.34zM16.78 8.11a.41.41 0 01.62-.35l2.43 1.52a.41.41 0 010 .69l-2.43 1.52a.41.41 0 01-.62-.34z"></path></svg>