<svg viewBox="0 0 24 24" id="v2_color_pd_ic_trip" xmlns="http://www.w3.org/2000/svg"><path fill="#333" d="M20.2 12.62H8.31a1.72 1.72 0 01-1.22-1.83c0-1 .64-1.84 1.34-1.84h7.71a.64.64 0 00.55-.64.65.65 0 00-.69-.67H8.27a3 3 0 00-2.48 3.14 2.92 2.92 0 002.64 3.14h11.89a1.46 1.46 0 011.17 1.52A1.44 1.44 0 0120.2 17H9.46a.65.65 0 00.09 1.3h10.81a2.74 2.74 0 002.43-2.83 2.73 2.73 0 00-2.59-2.85zM18.05 6.54c.26.4.56.81.9 1.24s.48.59.74.88L20 9l.31-.34c.26-.29.51-.58.74-.88s.64-.84.9-1.24a10.15 10.15 0 00.74-1.4A3.52 3.52 0 0023 3.8a2.61 2.61 0 00-.4-1.42 3 3 0 00-1.08-1 3.31 3.31 0 00-3 0 3 3 0 00-1.08 1A2.61 2.61 0 0017 3.8a3.52 3.52 0 00.31 1.34 10.15 10.15 0 00.74 1.4zm1.09-3a1.06 1.06 0 01.36-.37A.93.93 0 0120 3a1 1 0 01.5.13 1.06 1.06 0 01.36.37A1 1 0 0121 4a1 1 0 01-.14.5 1 1 0 01-.36.36A1 1 0 0120 5a1 1 0 01-1-1 1 1 0 01.14-.5z"></path><path fill="#26bec9" d="M4.84 16.6l.78 1.56a.41.41 0 00.3.21l1.74.25a.4.4 0 01.26.15.43.43 0 01.08.29.48.48 0 01-.12.22L6.62 20.5a.35.35 0 00-.12.33l.32 1.72a.39.39 0 01-.32.45.37.37 0 01-.25 0l-1.56-.8a.4.4 0 00-.37 0l-1.56.8a.4.4 0 01-.54-.15.43.43 0 010-.25l.32-1.71a.37.37 0 00-.12-.34l-1.3-1.27a.36.36 0 010-.54.36.36 0 01.22-.11l1.75-.26a.36.36 0 00.29-.21l.76-1.56a.38.38 0 01.35-.21.41.41 0 01.3.21z"></path></svg>