<svg viewBox="0 0 24 24" id="v2_color_pd_ic_wifi_sim" xmlns="http://www.w3.org/2000/svg"><path fill="#333" d="M4.55 20.75V3.25h10v7.19a.63.63 0 00.63.63.63.63 0 00.62-.63V3.25A1.25 1.25 0 0014.55 2h-10A1.25 1.25 0 003.3 3.25v17.5A1.25 1.25 0 004.55 22h6.25a.63.63 0 00.63-.62.63.63 0 00-.63-.62z"></path><path fill="#333" d="M8.93 18.25h1.25a.62.62 0 01.62.62.63.63 0 01-.63.63H8.93a.62.62 0 01-.62-.62.63.63 0 01.62-.63zM7.1 4.5H12a.58.58 0 01.54.62.58.58 0 01-.54.62H7.1a.59.59 0 01-.55-.62.59.59 0 01.55-.62zM17.7 12h-4.81a.31.31 0 00-.32.31v9.38a.31.31 0 00.32.31h7.5a.31.31 0 00.31-.31V15a.32.32 0 00-.09-.23l-2.69-2.68a.28.28 0 00-.22-.09zm1.75 8.75h-5.63v-7.5h3.5l2.13 2.13z"></path><path fill="#26bec9" d="M11.86 7.05a5 5 0 00-4.24 4.23.63.63 0 00.62.72.63.63 0 00.62-.54A3.77 3.77 0 0112 8.29a.63.63 0 00.53-.62.63.63 0 00-.67-.62zM12.38 9.51a2.49 2.49 0 00-2.3 2.3.18.18 0 00.18.19h.89a1.42 1.42 0 011.42-1.43v-.89a.17.17 0 00-.19-.17z"></path></svg>